HIERARCHY
ROOT hips
{
	OFFSET -0.0367 2.9993 -0.2171
	CHANNELS 6 Xposition Yposition Zposition Xrotation Yrotation Zrotation
	JOINT LowerBack
	{
		OFFSET 0.0092 1.7759 0.0927
		CHANNELS 3 Xrotation Yrotation Zrotation
		JOINT spine
		{
			OFFSET 0.0092 1.7759 0.0927
			CHANNELS 3 Xrotation Yrotation Zrotation
			JOINT chest
			{
				OFFSET 0.0046 1.0002 0.0464
				CHANNELS 3 Xrotation Yrotation Zrotation
				JOINT neck
				{
					OFFSET 0.0046 1.0002 0.0464
					CHANNELS 3 Xrotation Yrotation Zrotation
					JOINT head
					{
						OFFSET 0.0092 1.5515 0.0927
						CHANNELS 6 Xposition Yposition Zposition Xrotation Yrotation Zrotation
						End Site
						{
							OFFSET 0.0000 1.5340 0.0000
						}
					}
				}
				JOINT shoulder.L
				{
					OFFSET 0.1994 0.7897 0.5752
					CHANNELS 6 Xposition Yposition Zposition Xrotation Yrotation Zrotation
					JOINT upper_arm.L
					{
						OFFSET 1.7702 -0.2046 -0.9506
						CHANNELS 6 Xposition Yposition Zposition Xrotation Yrotation Zrotation
						JOINT forearm.L
						{
							OFFSET 2.4710 -1.3550 -0.6180
							CHANNELS 3 Xrotation Yrotation Zrotation
							JOINT hand.L
							{
								OFFSET 2.1700 -1.4300 0.3930
								CHANNELS 3 Xrotation Yrotation Zrotation
								JOINT palm.01.L
								{
									OFFSET 0.2177 -0.3829 0.1295
									CHANNELS 6 Xposition Yposition Zposition Xrotation Yrotation Zrotation
									JOINT f_index.01.L
									{
										OFFSET 0.5322 -0.4414 0.0824
										CHANNELS 3 Xrotation Yrotation Zrotation
										JOINT f_index.02.L
										{
											OFFSET 0.3611 -0.2472 -0.1066
											CHANNELS 3 Xrotation Yrotation Zrotation
											JOINT f_index.03.L
											{
												OFFSET 0.2134 -0.1495 -0.1085
												CHANNELS 3 Xrotation Yrotation Zrotation
												End Site
												{
													OFFSET 0.1560 -0.0986 -0.1342
												}
											}
										}
									}
									JOINT thumb.01.L
									{
										OFFSET -0.0909 -0.0235 -0.2422
										CHANNELS 6 Xposition Yposition Zposition Xrotation Yrotation Zrotation
										JOINT thumb.02.L
										{
											OFFSET 0.1971 -0.3508 -0.1112
											CHANNELS 3 Xrotation Yrotation Zrotation
											JOINT thumb.03.L
											{
												OFFSET 0.2488 -0.2175 -0.0518
												CHANNELS 3 Xrotation Yrotation Zrotation
												End Site
												{
													OFFSET 0.1613 -0.1303 -0.0157
												}
											}
										}
									}
								}
								JOINT palm.02.L
								{
									OFFSET 0.3282 -0.2510 0.1228
									CHANNELS 6 Xposition Yposition Zposition Xrotation Yrotation Zrotation
									JOINT f_middle.01.L
									{
										OFFSET 0.5572 -0.3847 0.0804
										CHANNELS 3 Xrotation Yrotation Zrotation
										JOINT f_middle.02.L
										{
											OFFSET 0.3817 -0.2747 -0.1558
											CHANNELS 3 Xrotation Yrotation Zrotation
											JOINT f_middle.03.L
											{
												OFFSET 0.2171 -0.1659 -0.1704
												CHANNELS 3 Xrotation Yrotation Zrotation
												End Site
												{
													OFFSET 0.1411 -0.1058 -0.1429
												}
											}
										}
									}
								}
								JOINT palm.03.L
								{
									OFFSET 0.3923 -0.1140 0.0839
									CHANNELS 6 Xposition Yposition Zposition Xrotation Yrotation Zrotation
									JOINT f_ring.01.L
									{
										OFFSET 0.6180 -0.3147 0.0791
										CHANNELS 3 Xrotation Yrotation Zrotation
										JOINT f_ring.02.L
										{
											OFFSET 0.3309 -0.2340 -0.1913
											CHANNELS 3 Xrotation Yrotation Zrotation
											JOINT f_ring.03.L
											{
												OFFSET 0.2139 -0.1536 -0.1782
												CHANNELS 3 Xrotation Yrotation Zrotation
												End Site
												{
													OFFSET 0.0867 -0.0730 -0.1469
												}
											}
										}
									}
								}
								JOINT palm.04.L
								{
									OFFSET 0.4342 0.0245 0.0289
									CHANNELS 6 Xposition Yposition Zposition Xrotation Yrotation Zrotation
									JOINT f_pinky.01.L
									{
										OFFSET 0.6999 -0.2616 0.0363
										CHANNELS 3 Xrotation Yrotation Zrotation
										JOINT f_pinky.02.L
										{
											OFFSET 0.1852 -0.1281 -0.1643
											CHANNELS 3 Xrotation Yrotation Zrotation
											JOINT f_pinky.03.L
											{
												OFFSET 0.1382 -0.0980 -0.1495
												CHANNELS 3 Xrotation Yrotation Zrotation
												End Site
												{
													OFFSET 0.0724 -0.0610 -0.1166
												}
											}
										}
									}
								}
							}
						}
					}
				}
				JOINT shoulder.R
				{
					OFFSET -0.1666 0.7896 0.5770
					CHANNELS 6 Xposition Yposition Zposition Xrotation Yrotation Zrotation
					JOINT upper_arm.R
					{
						OFFSET -1.7697 -0.2054 -0.9514
						CHANNELS 6 Xposition Yposition Zposition Xrotation Yrotation Zrotation
						JOINT forearm.R
						{
							OFFSET -2.4710 -1.3550 -0.6180
							CHANNELS 3 Xrotation Yrotation Zrotation
							JOINT hand.R
							{
								OFFSET -2.1700 -1.4300 0.3930
								CHANNELS 3 Xrotation Yrotation Zrotation
								JOINT palm.01.R
								{
									OFFSET -0.2177 -0.3828 0.1299
									CHANNELS 6 Xposition Yposition Zposition Xrotation Yrotation Zrotation
									JOINT f_index.01.R
									{
										OFFSET -0.5321 -0.4414 0.0825
										CHANNELS 3 Xrotation Yrotation Zrotation
										JOINT f_index.02.R
										{
											OFFSET -0.3605 -0.2483 -0.1063
											CHANNELS 3 Xrotation Yrotation Zrotation
											JOINT f_index.03.R
											{
												OFFSET -0.2137 -0.1488 -0.1087
												CHANNELS 3 Xrotation Yrotation Zrotation
												End Site
												{
													OFFSET -0.1558 -0.0988 -0.1342
												}
											}
										}
									}
									JOINT thumb.01.R
									{
										OFFSET 0.0911 -0.0238 -0.2421
										CHANNELS 6 Xposition Yposition Zposition Xrotation Yrotation Zrotation
										JOINT thumb.02.R
										{
											OFFSET -0.1969 -0.3510 -0.1109
											CHANNELS 3 Xrotation Yrotation Zrotation
											JOINT thumb.03.R
											{
												OFFSET -0.2487 -0.2176 -0.0517
												CHANNELS 3 Xrotation Yrotation Zrotation
												End Site
												{
													OFFSET -0.1612 -0.1304 -0.0157
												}
											}
										}
									}
								}
								JOINT palm.02.R
								{
									OFFSET -0.3283 -0.2510 0.1229
									CHANNELS 6 Xposition Yposition Zposition Xrotation Yrotation Zrotation
									JOINT f_middle.01.R
									{
										OFFSET -0.5572 -0.3847 0.0804
										CHANNELS 3 Xrotation Yrotation Zrotation
										JOINT f_middle.02.R
										{
											OFFSET -0.3810 -0.2759 -0.1556
											CHANNELS 3 Xrotation Yrotation Zrotation
											JOINT f_middle.03.R
											{
												OFFSET -0.2173 -0.1653 -0.1705
												CHANNELS 3 Xrotation Yrotation Zrotation
												End Site
												{
													OFFSET -0.1410 -0.1061 -0.1429
												}
											}
										}
									}
								}
								JOINT palm.03.R
								{
									OFFSET -0.3919 -0.1149 0.0839
									CHANNELS 6 Xposition Yposition Zposition Xrotation Yrotation Zrotation
									JOINT f_ring.01.R
									{
										OFFSET -0.6184 -0.3139 0.0788
										CHANNELS 3 Xrotation Yrotation Zrotation
										JOINT f_ring.02.R
										{
											OFFSET -0.3307 -0.2344 -0.1913
											CHANNELS 3 Xrotation Yrotation Zrotation
											JOINT f_ring.03.R
											{
												OFFSET -0.2137 -0.1539 -0.1782
												CHANNELS 3 Xrotation Yrotation Zrotation
												End Site
												{
													OFFSET -0.0865 -0.0732 -0.1468
												}
											}
										}
									}
								}
								JOINT palm.04.R
								{
									OFFSET -0.4342 0.0244 0.0284
									CHANNELS 6 Xposition Yposition Zposition Xrotation Yrotation Zrotation
									JOINT f_pinky.01.R
									{
										OFFSET -0.6998 -0.2617 0.0360
										CHANNELS 3 Xrotation Yrotation Zrotation
										JOINT f_pinky.02.R
										{
											OFFSET -0.1850 -0.1284 -0.1643
											CHANNELS 3 Xrotation Yrotation Zrotation
											JOINT f_pinky.03.R
											{
												OFFSET -0.1381 -0.0982 -0.1495
												CHANNELS 3 Xrotation Yrotation Zrotation
												End Site
												{
													OFFSET -0.0723 -0.0612 -0.1166
												}
											}
										}
									}
								}
							}
						}
					}
				}
			}
		}
	}
	JOINT pelvis.L
	{
		OFFSET 0.0000 0.0000 0.0000
		CHANNELS 6 Xposition Yposition Zposition Xrotation Yrotation Zrotation
		JOINT thigh.L
		{
			OFFSET 1.0168 0.0105 -0.0000
			CHANNELS 3 Xrotation Yrotation Zrotation
			JOINT shin.L
			{
				OFFSET 0.0000 -5.3480 0.4100
				CHANNELS 3 Xrotation Yrotation Zrotation
				JOINT foot.L
				{
					OFFSET 0.0000 -4.5200 -0.4480
					CHANNELS 3 Xrotation Yrotation Zrotation
					JOINT toe.L
					{
						OFFSET -0.0000 -0.6850 1.0960
						CHANNELS 3 Xrotation Yrotation Zrotation
						End Site
						{
							OFFSET -0.0000 0.0000 0.6720
						}
					}
				}
				JOINT heel.L
				{
					OFFSET 0.0000 -4.5200 -0.4480
					CHANNELS 3 Xrotation Yrotation Zrotation
					JOINT heel.02.L
					{
						OFFSET -0.3800 -0.8520 0.1620
						CHANNELS 6 Xposition Yposition Zposition Xrotation Yrotation Zrotation
						End Site
						{
							OFFSET 0.8000 -0.0000 0.0000
						}
					}
				}
			}
		}
	}
	JOINT pelvis.R
	{
		OFFSET 0.0000 0.0000 0.0000
		CHANNELS 6 Xposition Yposition Zposition Xrotation Yrotation Zrotation
		JOINT thigh.R
		{
			OFFSET -0.9433 0.0105 0.0000
			CHANNELS 3 Xrotation Yrotation Zrotation
			JOINT shin.R
			{
				OFFSET 0.0000 -5.3480 0.4100
				CHANNELS 3 Xrotation Yrotation Zrotation
				JOINT foot.R
				{
					OFFSET 0.0000 -4.5200 -0.4480
					CHANNELS 3 Xrotation Yrotation Zrotation
					JOINT toe.R
					{
						OFFSET -0.0000 -0.6850 1.0960
						CHANNELS 3 Xrotation Yrotation Zrotation
						End Site
						{
							OFFSET -0.0000 0.0000 0.6720
						}
					}
				}
				JOINT heel.R
				{
					OFFSET 0.0000 -4.5200 -0.4480
					CHANNELS 3 Xrotation Yrotation Zrotation
					JOINT heel.02.R
					{
						OFFSET 0.3800 -0.8520 0.1620
						CHANNELS 6 Xposition Yposition Zposition Xrotation Yrotation Zrotation
						End Site
						{
							OFFSET -0.8000 0.0000 -0.0000
						}
					}
				}
			}
		}
	}
}
MOTION
Frames: 5
Frame Time: 0.041667
-0.0011 0.2711 -0.0210 45.4996 86.4528 -43.8076 -0.0000 0.0000 -0.0000 -0.0000 -0.0000 0.0000 -0.0000 -0.0000 0.0000 -0.0000 -0.0000 -0.0000 0.0009 0.1551 0.0093 11.5449 -0.0171 8.1831 0.0199 0.0790 0.0575 4.1597 8.9147 25.9301 0.1770 -0.0205 -0.0951 -13.2790 11.2330 -62.2355 -3.6684 -6.1837 -7.0160 0.0000 -0.0000 -0.0000 0.0218 -0.0383 0.0130 0.0000 -0.0000 -0.0000 -0.0000 -0.0000 0.0000 -0.0000 0.0000 0.0000 -0.0000 -0.0000 0.0000 -0.0091 -0.0023 -0.0242 -0.0000 0.0000 -0.0000 0.0000 0.0000 -0.0000 -0.0000 0.0000 -0.0000 0.0328 -0.0251 0.0123 0.0000 -0.0000 0.0000 -0.0000 -0.0000 -0.0000 -0.0000 -0.0000 -0.0000 -0.0000 0.0000 0.0000 0.0392 -0.0114 0.0084 0.0000 -0.0000 0.0000 -0.0000 0.0000 -0.0000 0.0000 0.0000 0.0000 0.0000 -0.0000 -0.0000 0.0434 0.0024 0.0029 -0.0000 -0.0000 -0.0000 -0.0000 -0.0000 0.0000 -0.0000 -0.0000 -0.0000 0.0000 0.0000 -0.0000 -0.0167 0.0790 0.0577 3.0630 7.2007 -28.6771 -0.1770 -0.0205 -0.0951 -12.2165 -13.1904 67.1837 3.3191 42.3984 -33.7777 0.0000 0.0000 0.0000 -0.0218 -0.0383 0.0130 -0.0000 0.0000 -0.0000 -0.0000 0.0000 0.0000 -0.0000 -0.0000 -0.0000 0.0000 0.0000 0.0000 0.0091 -0.0024 -0.0242 0.0000 -0.0000 0.0000 -0.0000 -0.0000 0.0000 0.0000 -0.0000 -0.0000 -0.0328 -0.0251 0.0123 0.0000 0.0000 -0.0000 0.0000 0.0000 -0.0000 0.0000 -0.0000 0.0000 -0.0000 0.0000 -0.0000 -0.0392 -0.0115 0.0084 0.0000 0.0000 -0.0000 -0.0000 0.0000 -0.0000 0.0000 -0.0000 0.0000 -0.0000 0.0000 -0.0000 -0.0434 0.0024 0.0028 0.0000 0.0000 -0.0000 0.0000 0.0000 0.0000 -0.0000 -0.0000 0.0000 -0.0000 0.0000 0.0000 -0.0000 0.0000 -0.0000 -1.4881 -0.1410 0.7788 -12.0262 -0.3183 -3.1427 17.0457 -0.4127 4.1701 -0.0000 0.0000 -0.0000 -0.0000 0.0000 -0.0000 -0.0000 0.0000 -0.0000 -0.0380 -0.0852 0.0162 -0.0000 0.0000 0.0000 0.0000 -0.0000 -0.0000 -1.4604 -0.1403 2.0131 -1.1757 0.4661 5.6506 48.8393 -0.0712 0.7194 0.0000 -0.0000 0.0000 0.0000 -0.0000 -0.0000 0.0000 -0.0000 -0.0000 0.0380 -0.0852 0.0162 -0.0000 0.0000 0.0000 
-0.0021 0.2670 -0.0223 -28.7234 96.3338 32.1504 -0.0000 0.0000 -0.0000 -0.0000 -0.0000 0.0000 -0.0000 -0.0000 -0.0000 -0.0000 -0.0000 -0.0000 0.0009 0.1551 0.0093 10.6205 -0.0167 8.8019 0.0199 0.0790 0.0575 4.1748 6.7885 27.7423 0.1770 -0.0205 -0.0951 -11.3495 11.0550 -59.0921 -4.1748 -6.9730 -0.3746 -0.0000 -0.0000 0.0000 0.0218 -0.0383 0.0130 0.0000 0.0000 0.0000 -0.0000 -0.0000 -0.0000 -0.0000 0.0000 0.0000 -0.0000 0.0000 -0.0000 -0.0091 -0.0023 -0.0242 -0.0000 -0.0000 -0.0000 0.0000 -0.0000 0.0000 0.0000 0.0000 -0.0000 0.0328 -0.0251 0.0123 0.0000 -0.0000 0.0000 0.0000 0.0000 -0.0000 -0.0000 -0.0000 0.0000 0.0000 -0.0000 -0.0000 0.0392 -0.0114 0.0084 0.0000 -0.0000 0.0000 0.0000 -0.0000 -0.0000 0.0000 0.0000 -0.0000 -0.0000 -0.0000 0.0000 0.0434 0.0024 0.0029 0.0000 -0.0000 -0.0000 -0.0000 -0.0000 -0.0000 0.0000 0.0000 0.0000 -0.0000 0.0000 0.0000 -0.0167 0.0790 0.0577 3.2609 1.3338 -28.1069 -0.1770 -0.0205 -0.0951 -2.7508 -12.3348 64.6712 2.5669 41.8016 -33.4368 -0.0000 0.0000 -0.0000 -0.0218 -0.0383 0.0130 -0.0000 -0.0000 -0.0000 -0.0000 -0.0000 0.0000 0.0000 0.0000 -0.0000 -0.0000 -0.0000 0.0000 0.0091 -0.0024 -0.0242 0.0000 -0.0000 0.0000 -0.0000 -0.0000 0.0000 0.0000 -0.0000 0.0000 -0.0328 -0.0251 0.0123 -0.0000 0.0000 -0.0000 -0.0000 0.0000 -0.0000 -0.0000 -0.0000 -0.0000 -0.0000 -0.0000 -0.0000 -0.0392 -0.0115 0.0084 0.0000 0.0000 -0.0000 -0.0000 0.0000 -0.0000 0.0000 -0.0000 -0.0000 -0.0000 0.0000 -0.0000 -0.0434 0.0024 0.0028 -0.0000 -0.0000 -0.0000 -0.0000 0.0000 -0.0000 0.0000 -0.0000 0.0000 -0.0000 -0.0000 0.0000 -0.0000 0.0000 -0.0000 -1.5251 -0.0201 -0.7638 -3.7322 -0.3376 -3.8761 10.0422 -0.1373 1.3873 0.0000 0.0000 -0.0000 -0.0000 0.0000 0.0000 0.0000 0.0000 0.0000 -0.0380 -0.0852 0.0162 0.0000 0.0000 -0.0000 -0.0000 0.0000 -0.0000 -1.4930 -0.0202 0.4703 -15.0988 0.3546 3.1629 49.9104 -0.6595 6.6699 0.0000 -0.0000 0.0000 0.0000 0.0000 0.0000 0.0000 0.0000 0.0000 0.0380 -0.0852 0.0162 0.0000 0.0000 0.0000 
-0.0037 0.2723 -0.0241 -31.3843 95.9715 31.4676 -0.0000 -0.0000 -0.0000 -0.0000 0.0000 0.0000 0.0000 0.0000 0.0000 0.0000 0.0000 -0.0000 0.0009 0.1551 0.0093 11.1830 -0.0142 5.4098 0.0199 0.0790 0.0575 4.4605 1.8045 28.8266 0.1770 -0.0205 -0.0951 -11.7922 11.1759 -60.5530 -2.8693 -5.3415 -3.8946 -0.0000 -0.0000 -0.0000 0.0218 -0.0383 0.0130 0.0000 0.0000 -0.0000 -0.0000 0.0000 0.0000 0.0000 -0.0000 0.0000 0.0000 0.0000 0.0000 -0.0091 -0.0023 -0.0242 -0.0000 -0.0000 0.0000 0.0000 -0.0000 -0.0000 -0.0000 0.0000 0.0000 0.0328 -0.0251 0.0123 -0.0000 0.0000 0.0000 -0.0000 0.0000 -0.0000 -0.0000 -0.0000 0.0000 -0.0000 0.0000 -0.0000 0.0392 -0.0114 0.0084 -0.0000 -0.0000 0.0000 -0.0000 0.0000 -0.0000 -0.0000 0.0000 -0.0000 0.0000 -0.0000 0.0000 0.0434 0.0024 0.0029 0.0000 -0.0000 -0.0000 -0.0000 -0.0000 0.0000 -0.0000 0.0000 -0.0000 0.0000 0.0000 -0.0000 -0.0167 0.0790 0.0577 4.1411 -3.6702 -26.6559 -0.1770 -0.0205 -0.0951 -0.0205 -11.2930 65.9712 1.7588 41.7144 -34.3820 0.0000 0.0000 0.0000 -0.0218 -0.0383 0.0130 -0.0000 0.0000 -0.0000 -0.0000 0.0000 0.0000 -0.0000 0.0000 -0.0000 -0.0000 0.0000 -0.0000 0.0091 -0.0024 -0.0242 -0.0000 -0.0000 0.0000 0.0000 -0.0000 0.0000 0.0000 -0.0000 -0.0000 -0.0328 -0.0251 0.0123 -0.0000 0.0000 -0.0000 0.0000 0.0000 0.0000 0.0000 0.0000 0.0000 -0.0000 0.0000 -0.0000 -0.0392 -0.0115 0.0084 -0.0000 0.0000 -0.0000 -0.0000 0.0000 -0.0000 0.0000 0.0000 0.0000 -0.0000 0.0000 -0.0000 -0.0434 0.0024 0.0028 -0.0000 0.0000 -0.0000 -0.0000 0.0000 0.0000 -0.0000 -0.0000 0.0000 -0.0000 0.0000 0.0000 -0.0000 0.0000 -0.0000 -1.3985 -0.0505 -0.3723 2.7164 -0.3790 -4.8177 4.5222 -0.1376 1.3906 0.0000 0.0000 0.0000 0.0000 0.0000 0.0000 0.0000 0.0000 -0.0000 -0.0380 -0.0852 0.0162 0.0000 0.0000 0.0000 -0.0000 0.0000 -0.0000 -1.3699 -0.0504 0.8619 -22.3033 0.4021 3.2602 52.5486 -0.3805 3.8427 0.0000 0.0000 0.0000 0.0000 -0.0000 0.0000 0.0000 0.0000 -0.0000 0.0380 -0.0852 0.0162 0.0000 0.0000 0.0000 
-0.0042 0.2719 -0.0224 -1.4331 104.3747 3.0497 -0.0000 0.0000 0.0000 -0.0000 0.0000 0.0000 -0.0000 0.0000 -0.0000 -0.0000 0.0000 -0.0000 0.0009 0.1551 0.0093 15.5542 -0.0187 5.7182 0.0199 0.0790 0.0575 4.6951 0.0790 31.1378 0.1770 -0.0205 -0.0951 -16.3320 10.6316 -56.6749 -12.4108 -15.0752 -8.0823 -0.0000 -0.0000 -0.0000 0.0218 -0.0383 0.0130 -0.0000 -0.0000 -0.0000 -0.0000 -0.0000 0.0000 -0.0000 -0.0000 0.0000 -0.0000 0.0000 -0.0000 -0.0091 -0.0023 -0.0242 -0.0000 -0.0000 -0.0000 0.0000 -0.0000 0.0000 -0.0000 -0.0000 -0.0000 0.0328 -0.0251 0.0123 -0.0000 -0.0000 0.0000 -0.0000 -0.0000 -0.0000 -0.0000 -0.0000 0.0000 -0.0000 0.0000 -0.0000 0.0392 -0.0114 0.0084 0.0000 -0.0000 0.0000 -0.0000 -0.0000 -0.0000 -0.0000 0.0000 0.0000 0.0000 -0.0000 0.0000 0.0434 0.0024 0.0029 -0.0000 -0.0000 -0.0000 0.0000 -0.0000 -0.0000 0.0000 -0.0000 0.0000 -0.0000 -0.0000 0.0000 -0.0167 0.0790 0.0577 4.4123 -8.1384 -26.0396 -0.1770 -0.0205 -0.0951 5.0699 -11.3433 65.7147 0.9854 41.5543 -35.1610 -0.0000 0.0000 0.0000 -0.0218 -0.0383 0.0130 -0.0000 -0.0000 -0.0000 0.0000 0.0000 0.0000 -0.0000 -0.0000 -0.0000 -0.0000 0.0000 0.0000 0.0091 -0.0024 -0.0242 -0.0000 0.0000 -0.0000 0.0000 -0.0000 0.0000 -0.0000 -0.0000 -0.0000 -0.0328 -0.0251 0.0123 0.0000 -0.0000 0.0000 -0.0000 0.0000 -0.0000 0.0000 0.0000 -0.0000 0.0000 -0.0000 -0.0000 -0.0392 -0.0115 0.0084 -0.0000 -0.0000 -0.0000 -0.0000 0.0000 -0.0000 -0.0000 -0.0000 -0.0000 -0.0000 0.0000 0.0000 -0.0434 0.0024 0.0028 -0.0000 -0.0000 -0.0000 -0.0000 0.0000 -0.0000 -0.0000 -0.0000 0.0000 0.0000 0.0000 0.0000 0.0000 0.0000 0.0000 -1.4480 0.0522 -1.6978 5.7072 -0.4593 -6.0552 1.6551 -0.1797 1.8159 -0.0000 0.0000 -0.0000 0.0000 0.0000 0.0000 -0.0000 0.0000 -0.0000 -0.0380 -0.0852 0.0162 -0.0000 -0.0000 -0.0000 0.0000 0.0000 0.0000 -1.4153 0.0516 -0.4636 -24.4798 0.3458 2.4407 52.8749 -0.4586 4.6335 -0.0000 -0.0000 0.0000 0.0000 0.0000 0.0000 0.0000 -0.0000 0.0000 0.0380 -0.0852 0.0162 0.0000 0.0000 0.0000 
-0.0033 0.2714 -0.0219 -8.0021 110.4098 10.0797 0.0000 0.0000 0.0000 -0.0000 -0.0000 -0.0000 -0.0000 -0.0000 -0.0000 -0.0000 -0.0000 -0.0000 0.0009 0.1551 0.0093 5.5306 -0.0067 5.5996 0.0199 0.0790 0.0575 4.2311 -1.7801 30.7124 0.1770 -0.0205 -0.0951 -13.0532 11.3830 -57.9491 -15.8537 -17.7502 -9.8689 -0.0000 0.0000 0.0000 0.0218 -0.0383 0.0130 0.0000 0.0000 -0.0000 -0.0000 -0.0000 -0.0000 -0.0000 0.0000 0.0000 -0.0000 0.0000 -0.0000 -0.0091 -0.0023 -0.0242 0.0000 -0.0000 -0.0000 0.0000 -0.0000 -0.0000 -0.0000 -0.0000 -0.0000 0.0328 -0.0251 0.0123 0.0000 -0.0000 0.0000 0.0000 0.0000 -0.0000 -0.0000 -0.0000 0.0000 0.0000 0.0000 0.0000 0.0392 -0.0114 0.0084 -0.0000 -0.0000 0.0000 -0.0000 -0.0000 0.0000 0.0000 -0.0000 0.0000 -0.0000 -0.0000 0.0000 0.0434 0.0024 0.0029 0.0000 0.0000 -0.0000 -0.0000 -0.0000 0.0000 0.0000 0.0000 -0.0000 -0.0000 0.0000 -0.0000 -0.0167 0.0790 0.0577 4.9180 -10.6045 -26.5975 -0.1770 -0.0205 -0.0951 12.6293 -10.5954 68.8190 0.3233 41.3400 -35.4214 0.0000 -0.0000 -0.0000 -0.0218 -0.0383 0.0130 0.0000 0.0000 -0.0000 -0.0000 0.0000 0.0000 0.0000 -0.0000 -0.0000 -0.0000 0.0000 0.0000 0.0091 -0.0024 -0.0242 -0.0000 0.0000 0.0000 0.0000 -0.0000 0.0000 0.0000 -0.0000 -0.0000 -0.0328 -0.0251 0.0123 0.0000 0.0000 -0.0000 0.0000 0.0000 0.0000 0.0000 0.0000 -0.0000 -0.0000 0.0000 -0.0000 -0.0392 -0.0115 0.0084 0.0000 0.0000 -0.0000 0.0000 0.0000 0.0000 0.0000 -0.0000 0.0000 0.0000 0.0000 0.0000 -0.0434 0.0024 0.0028 0.0000 0.0000 0.0000 -0.0000 0.0000 -0.0000 0.0000 0.0000 -0.0000 -0.0000 0.0000 0.0000 0.0000 0.0000 -0.0000 -1.4707 0.0078 -1.1236 5.6116 -0.3984 -5.2490 0.1653 -0.1469 1.4843 0.0000 -0.0000 -0.0000 -0.0000 -0.0000 -0.0000 -0.0000 -0.0000 -0.0000 -0.0380 -0.0852 0.0162 0.0000 0.0000 -0.0000 0.0000 0.0000 -0.0000 -1.4388 0.0075 0.1106 -25.0897 0.3539 2.5239 37.0857 -0.3429 3.4622 0.0000 0.0000 0.0000 0.0000 0.0000 0.0000 0.0000 0.0000 0.0000 0.0380 -0.0852 0.0162 -0.0000 -0.0000 0.0000 
